<svg xmlns="http://www.w3.org/2000/svg" viewBox="0 0 30 19" fill="none"><path fill="#28523C" d="m29 12-2 1 2 1v2l-4 2-8-4v-1l-3-1.5L9 14l-8-4V8l2-1V5l8-4 4 2v2l-2 1v1l3 1.5L21 6l8 4v2Z"/><path fill="#E2AFAE" d="m27 13-2 1 4 2-4 2-8-4 4-2-1-.5-3 1.5-3-1.5-2-1L9 12 1 8l2-1 2-1-2-1 8-4 4 2-4 2 2 1-4 2 1 .5L13 7l3 1.5 2 1L21 8l8 4-2 1Z"/><path stroke="#EEE" stroke-width=".1" d="m27 13-2 1 4 2m-2-3 2-1m-2 1 2 1v2m0 0-4 2-8-4m0 0 4-2-1-.5-3 1.5m0 1v-1m0 0-3-1.5m0 0-2-1L9 12m5-.5L9 14m0-2L1 8m8 4v2M1 8l2-1M1 8v2l8 4M3 7l2-1-2-1m0 2V5m0 0 8-4 4 2m0 0-4 2 2 1m2-3v2l-2 1m0 0L9 8l1 .5L13 7m0-1v1m0 0 3 1.5m0 0 2 1L21 8m-5 .5L21 6m0 2 8 4m-8-4V6m8 6v-2l-8-4"/></svg>
